#!OML:ASF E:\Style6\Style6.ASF
:FULLY-SPECIFIED
:DEGREES
2566
root 0.367029 17.5399 -1.04191 20.5149 6.51622 2.23614
lowerback 11.3378 -0.77112 2.08059
upperback 7.99976 -0.815044 1.44133
thorax 1.99436 -0.349417 0.403937
lowerneck 12.3798 11.9241 -5.97543
upperneck -2.82046 14.1272 -14.4708
head -2.19602 7.71367 -4.19326
rclavicle 2.5842e-014 7.15625e-015
rhumerus -4.75786 -15.1623 -83.9663
rradius 33.7214
rwrist 29.5079
rhand -4.67832 9.3272
rfingers 7.12502
rthumb 21.1025 -19.5445
lclavicle 2.5842e-014 7.15625e-015
lhumerus 70.5353 -6.67813 78.1843
lradius 32.6196
lwrist -30.6339
lhand -21.729 18.6028
lfingers 7.12502
lthumb 4.67045 48.5313
rfemur -45.0977 -9.34406 19.2558
rtibia 39.1815
rfoot -8.36363 -9.13709
rtoes -10.6812
lfemur -44.025 4.19017 -22.5759
ltibia 36.2598
lfoot -7.89281 -4.95478
ltoes -17.7939
2567
root 0.367483 17.5407 -1.04284 20.5181 6.49683 2.2413
lowerback 11.368 -0.76852 2.04052
upperback 7.98624 -0.813804 1.44828
thorax 1.96426 -0.35083 0.433907
lowerneck 12.387 11.9237 -5.97266
upperneck -2.77971 14.1301 -14.4877
head -2.18328 7.71328 -4.19733
rclavicle 0 7.15625e-015
rhumerus -4.79888 -15.1133 -83.9376
rradius 33.7878
rwrist 29.4805
rhand -4.6883 9.24931
rfingers 7.12502
rthumb 21.0929 -19.6234
lclavicle 0 7.15625e-015
lhumerus 70.4304 -6.73068 77.9955
lradius 32.4195
lwrist -30.4123
lhand -21.3397 18.8393
lfingers 7.12502
lthumb 5.04638 48.7592
rfemur -45.1214 -9.35696 19.2683
rtibia 39.1944
rfoot -8.29468 -9.19189
rtoes -11.3871
lfemur -44.0383 4.16676 -22.5742
ltibia 36.2703
lfoot -7.89663 -4.91395
ltoes -17.7233
2568
root 0.367837 17.5402 -1.04439 20.539 6.45848 2.21634
lowerback 11.3788 -0.771539 2.008
upperback 7.96533 -0.819961 1.46069
thorax 1.93685 -0.355839 0.465798
lowerneck 12.3768 11.9433 -6.02757
upperneck -2.72691 14.1549 -14.4749
head -2.16881 7.72161 -4.18419
rclavicle 8.74653e-015 3.1408e-014
rhumerus -4.82985 -15.0106 -83.9359
rradius 33.8453
rwrist 29.3902
rhand -4.69161 9.17238
rfingers 7.12502
rthumb 21.0897 -19.7007
lclavicle 8.74653e-015 3.1408e-014
lhumerus 70.3036 -6.72692 77.9107
lradius 32.2038
lwrist -30.3163
lhand -20.8972 19.3159
lfingers 7.12502
lthumb 5.47365 49.2252
rfemur -45.1436 -9.28657 19.2645
rtibia 39.1884
rfoot -8.35706 -9.16007
rtoes -10.5144
lfemur -44.0788 4.14206 -22.5376
ltibia 36.2749
lfoot -7.88591 -4.80069
ltoes -17.8993
2569
root 0.368361 17.5382 -1.04665 20.5519 6.40128 2.26329
lowerback 11.387 -0.763115 1.94183
upperback 7.97344 -0.814438 1.41939
thorax 1.94098 -0.354604 0.459581
lowerneck 12.3352 11.9274 -6.02606
upperneck -2.68285 14.1451 -14.444
head -2.15129 7.71081 -4.1698
rclavicle 1.31198e-014 -3.18055e-015
rhumerus -4.82381 -15.0356 -83.9918
rradius 33.895
rwrist 29.4248
rhand -4.71089 9.18692
rfingers 7.12502
rthumb 21.0712 -19.6882
lclavicle 1.31198e-014 -3.18055e-015
lhumerus 70.2769 -6.76146 77.9089
lradius 31.8688
lwrist -30.3807
lhand -20.3918 20.0957
lfingers 7.12502
lthumb 5.96151 49.9918
rfemur -45.1507 -9.23248 19.1769
rtibia 39.1715
rfoot -8.41595 -9.09675
rtoes -9.64161
lfemur -44.0977 4.13904 -22.5912
ltibia 36.2911
lfoot -7.88729 -4.73626
ltoes -17.9782
2570
root 0.369091 17.5383 -1.04707 20.5371 6.38448 2.25409
lowerback 11.3762 -0.765915 1.94927
upperback 8.00919 -0.818507 1.40332
thorax 1.98422 -0.355529 0.43886
lowerneck 12.283 11.9193 -6.02712
upperneck -2.64646 14.1452 -14.4342
head -2.13272 7.70621 -4.16127
rclavicle -2.18663e-014 -3.06128e-014
rhumerus -4.74776 -15.0328 -84.038
rradius 33.8814
rwrist 29.4199
rhand -4.7876 9.232
rfingers 7.12502
rthumb 20.9975 -19.6514
lclavicle -2.18663e-014 -3.06128e-014
lhumerus 70.2787 -6.79458 77.8574
lradius 31.5239
lwrist -30.4077
lhand -19.8502 20.4915
lfingers 7.12502
lthumb 6.48441 50.3722
rfemur -45.1314 -9.20979 19.1728
rtibia 39.1523
rfoot -8.40308 -9.11505
rtoes -9.73783
lfemur -44.0913 4.15358 -22.5923
ltibia 36.3119
lfoot -7.88393 -4.73839
ltoes -17.8487
2571
root 0.370346 17.5393 -1.04873 20.5115 6.41614 2.19672
lowerback 11.3875 -0.782907 2.0146
upperback 8.03336 -0.83532 1.41721
thorax 2.00316 -0.361429 0.418298
lowerneck 12.254 11.9286 -6.04886
upperneck -2.6446 14.1585 -14.4163
head -2.12952 7.71117 -4.15149
rclavicle 7.95139e-016 -1.59028e-014
rhumerus -4.67729 -14.9798 -84.044
rradius 33.8558
rwrist 29.3762
rhand -4.85323 9.28231
rfingers 7.12502
rthumb 20.9344 -19.608
lclavicle 7.95139e-016 -1.59028e-014
lhumerus 70.263 -6.82226 77.6674
lradius 31.203
lwrist -30.3308
lhand -19.2949 20.0744
lfingers 7.12502
lthumb 7.02045 49.938
rfemur -45.1167 -9.21052 19.2293
rtibia 39.1517
rfoot -8.40406 -9.11723
rtoes -9.59731
lfemur -44.0823 4.16688 -22.5426
ltibia 36.3177
lfoot -7.89429 -4.74913
ltoes -18.16
